<svg xmlns="http://www.w3.org/2000/svg" width="28.5" height="26.501" viewBox="0 0 28.5 26.501">
  <path id="Akhiri_Panggilan" data-name="Akhiri Panggilan" d="M175.627,328.678a15.184,15.184,0,0,1-7.678-2,31.914,31.914,0,0,1-11.914-11.337,13.562,13.562,0,0,1-1.808-5.14,7.222,7.222,0,0,1,2.354-6.556c.322-.312.647-.622.986-.916a1.943,1.943,0,0,1,3.129.583c.8,1.682,1.536,3.4,2.268,5.112a1.949,1.949,0,0,1-.285,2.033c-.324.43-.663.848-.983,1.281a1.975,1.975,0,0,0-.043,2.578,27.775,27.775,0,0,0,5.525,5.553,16.7,16.7,0,0,0,3.092,2.043,1.966,1.966,0,0,0,2.463-.371c.376-.36.736-.736,1.1-1.111a2.111,2.111,0,0,1,2.258-.6c1.67.484,3.346.947,5.009,1.453a1.971,1.971,0,0,1,1.09,3.2,15.1,15.1,0,0,1-1.294,1.719A6.437,6.437,0,0,1,175.627,328.678Z" transform="translate(-154.14 -302.178)" fill="#ed716b"/>
</svg>
