<svg xmlns="http://www.w3.org/2000/svg" width="6.368" height="10.971" viewBox="0 0 6.368 10.971">
  <path id="Back_on_ubah_data" data-name="Back on ubah data" d="M296,249.142a.453.453,0,0,1,.239.146q2.279,2.277,4.557,4.555a.331.331,0,0,1,0,.526q-2.283,2.286-4.57,4.569a.339.339,0,0,1-.5.041.346.346,0,0,1,.026-.5c.114-.123.237-.239.355-.358q1.935-1.935,3.873-3.867c.125-.124.113-.181,0-.3q-2.092-2.079-4.175-4.168a.438.438,0,0,1-.171-.332A.337.337,0,0,1,296,249.142Z" transform="translate(-295.084 -248.642)" fill="#15135b" stroke="#15135b" stroke-width="1"/>
</svg>
