<svg xmlns="http://www.w3.org/2000/svg" width="18.394" height="10.333" viewBox="0 0 18.394 10.333">
  <path id="Back" d="M296.274,249.143a.791.791,0,0,1,.417.255q3.981,3.977,7.959,7.956a.578.578,0,0,1,0,.919q-3.988,3.993-7.983,7.98a.591.591,0,0,1-.872.072.6.6,0,0,1,.045-.877c.2-.215.413-.418.621-.625q3.38-3.38,6.765-6.753c.218-.216.2-.316-.007-.519q-3.654-3.632-7.292-7.28a.765.765,0,0,1-.3-.579A.588.588,0,0,1,296.274,249.143Z" transform="translate(-248.642 305.408) rotate(-90)" fill="#ffb167" stroke="#ffb167" stroke-width="1"/>
</svg>
