<svg xmlns="http://www.w3.org/2000/svg" width="124.225" height="97.5" viewBox="0 0 124.225 97.5">
  <g id="Bar" transform="translate(-1093.342 -2398.507)">
    <path id="Path_7504" data-name="Path 7504" d="M1108.039,2404.171h-14.7v97.5h14.7v-97.5Z" transform="translate(0 -5.664)" fill="#d8d8d8"/>
    <path id="Path_7505" data-name="Path 7505" d="M1153.057,2428.6h-14.7v77.685h14.7V2428.6Z" transform="translate(-8.503 -10.28)" fill="#d8d8d8"/>
    <path id="Path_7506" data-name="Path 7506" d="M1198.067,2410.621h-14.7v92.268h14.7v-92.268Z" transform="translate(-17.007 -6.883)" fill="#d8d8d8"/>
    <path id="Path_7507" data-name="Path 7507" d="M1243.077,2446.111h-14.705v63.483h14.705v-63.483Z" transform="translate(-25.51 -13.588)" fill="#d8d8d8"/>
    <path id="Path_7511" data-name="Path 7511" d="M1108.039,2448.961h-14.7v68.055h14.7v-68.055Z" transform="translate(0 -21.01)" fill="#487cfa"/>
    <path id="Path_7512" data-name="Path 7512" d="M1153.057,2464.291h-14.7v48.738h14.7v-48.738Z" transform="translate(-8.503 -17.022)" fill="#ed716b"/>
    <path id="Path_7513" data-name="Path 7513" d="M1198.067,2453.011h-14.7V2510.9h14.7v-57.886Z" transform="translate(-17.007 -14.892)" fill="#15135b"/>
    <path id="Path_7514" data-name="Path 7514" d="M1243.077,2475.281h-14.705V2515.1h14.705v-39.823Z" transform="translate(-25.51 -19.099)" fill="#ffb167"/>
  </g>
</svg>
