<svg id="Layer_1" data-name="Layer 1" xmlns="http://www.w3.org/2000/svg" viewBox="0 0 273.4 287.49"><defs><style>.cls-1{fill:#2274b6;}.cls-2{fill:#5fa7dc;}</style></defs><path class="cls-1" d="M358.24,273l19.54-27.46a134.72,134.72,0,0,1,51.11,147.63l-32.31-9.5A101,101,0,0,0,358.24,273Z" transform="translate(-160.94 -209.53)"/><path class="cls-2" d="M176.27,316.72a16.86,16.86,0,0,0-14.34,16.45L161,365a16.87,16.87,0,0,0,13.32,17.29l32.72,7c.31.91.68,1.82,1,2.68l-19.88,26.36a16.89,16.89,0,0,0,1.31,21.6l21.82,23.18a16.88,16.88,0,0,0,21.48,2.56l28.08-18.23,2.61,1.21,5,33.08A16.89,16.89,0,0,0,284.87,496l31.83,1A16.87,16.87,0,0,0,334,483.68L341,451l2.68-1,26.92,19.9a16.87,16.87,0,0,0,21.6-1.32L410.81,451a5.65,5.65,0,1,0-7.51-8.45l-18.89,17.78a5.64,5.64,0,0,1-7.17.46l-22-16.32a103,103,0,0,0,33.67-29.65,5.64,5.64,0,0,0-9.15-6.59,92.84,92.84,0,1,1-48.26-143.76,5.64,5.64,0,0,0,3.14-10.83,105.9,105.9,0,0,0-53-1.61l5.65-26.79A5.63,5.63,0,0,1,293,220.8l18.67.56a5.62,5.62,0,1,0,.34-11.24l-18.73-.57A16.87,16.87,0,0,0,276,222.87l-7,32.72-2.68,1-26.63-20.17a16.89,16.89,0,0,0-21.6,1.31L195,259.59a16.9,16.9,0,0,0-2.57,21.48l18.23,28.08c-.41.83-.84,1.72-1.2,2.61Zm-4.06,48.34,1-31.83a5.64,5.64,0,0,1,4.78-5.49l27-4a104.48,104.48,0,0,0-1.6,52.64l-26.73-5.65A5.63,5.63,0,0,1,172.21,365.06Zm155.91,89.56-5.65,26.74a5.63,5.63,0,0,1-5.77,4.44l-31.77-1a5.65,5.65,0,0,1-5.49-4.79l-4-27A103.6,103.6,0,0,0,328.12,454.62Zm-78.4-13.24-23,14.89a5.63,5.63,0,0,1-7.13-.83l-21.81-23.18a5.64,5.64,0,0,1-.46-7.16l16.27-22a104.25,104.25,0,0,0,36,38.31ZM202.58,267.81,225.76,246a5.63,5.63,0,0,1,7.16-.46l22,16.26A104.24,104.24,0,0,0,216.47,298l-14.9-23a5.64,5.64,0,0,1,1-7.23Z" transform="translate(-160.94 -209.53)"/></svg>