<svg xmlns="http://www.w3.org/2000/svg" width="224.531" height="145.819" viewBox="0 0 224.531 145.819">
  <g id="Masuk_dengan_Email" data-name="Masuk dengan Email" transform="translate(0 0.006)">
    <path id="Path_7518" data-name="Path 7518" d="M143.911,68.559c-14.392.019-28.245-4.061-41.5-8.593s-26.4-9.608-40.523-11.758c-9.084-1.382-19.413-1.255-26.514,3.764-6.835,4.829-8.814,12.821-9.769,20.2-.718,5.555-1.049,11.385,1.64,16.466,1.868,3.527,5.064,6.435,7.316,9.8,7.863,11.695,3.134,26.634-4.507,38.6-3.583,5.614-7.78,11-10.489,16.932s-3.82,12.667-1.057,18.526c2.738,5.807,8.922,10.022,15.559,12.9,13.478,5.857,29.169,7.112,44.439,7.6,33.8,1.072,67.669-1.115,101.446-3.3,12.5-.809,25.055-1.623,37.3-3.966,6.8-1.3,13.8-3.229,18.614-7.457,6.117-5.368,7.368-14.132,2.917-20.432-7.465-10.566-27.148-12.559-32.5-23.992-2.952-6.294-.406-13.512,3.342-19.579,8.04-13.017,21.88-24.677,22.113-39.237.16-10-7.037-19.752-17.787-24.1-11.267-4.552-26.63-3.381-34.524,5.1C171.311,64.77,156.618,68.546,143.911,68.559Z" transform="translate(-16.91 -47.46)" fill="#ffb167" opacity="0.1"/>
    <path id="Path_7519" data-name="Path 7519" d="M989.681,689.257a5.233,5.233,0,0,0-4.711-.451s.722,1.39,3.691,1.259Z" transform="translate(-798.583 -565.007)" fill="#487cfa"/>
    <path id="Path_7520" data-name="Path 7520" d="M1004.422,693.25a5.232,5.232,0,0,1-1.086,4.607s-1.086-1.13,0-3.9Z" transform="translate(-813.023 -568.917)" fill="#487cfa"/>
    <path id="Path_7521" data-name="Path 7521" d="M1003.461,672.387s-.175-2.332-5.441-1.558a2.512,2.512,0,0,0,1.823,2.216A3.041,3.041,0,0,0,1003.461,672.387Z" transform="translate(-809.12 -550.686)" fill="#487cfa"/>
    <path id="Path_7522" data-name="Path 7522" d="M1021.525,679.5s2.226.714.241,5.653a2.519,2.519,0,0,1-1.733-2.293A3.019,3.019,0,0,1,1021.525,679.5Z" transform="translate(-826.853 -557.814)" fill="#487cfa"/>
    <path id="Path_7523" data-name="Path 7523" d="M1022.1,647.756s.3-3.837-5.079-3.445c0,0-.385,3.466,4.13,4.367Z" transform="translate(-824.46 -529.378)" fill="#487cfa"/>
    <path id="Path_7524" data-name="Path 7524" d="M1036.257,626s-.737-4.349-6.117-3.054c0,0-.019,3.76,5.239,4.089Z" transform="translate(-835.056 -511.956)" fill="#487cfa"/>
    <path id="Path_7525" data-name="Path 7525" d="M1047.875,603.117s-1.236-4.236-6.565-2.969c0,0,1.269,3.81,6.211,3.751Z" transform="translate(-844.076 -493.549)" fill="#487cfa"/>
    <path id="Path_7526" data-name="Path 7526" d="M1061.584,579.891s-1.207-4.4-6.354-3.081c0,0,1.717,4.176,6.013,3.824Z" transform="translate(-855.315 -474.698)" fill="#487cfa"/>
    <path id="Path_7527" data-name="Path 7527" d="M1072.476,553.985s-.928-5.376-5.726-4.186c0,0,1.394,4.89,5.374,4.969Z" transform="translate(-864.617 -452.946)" fill="#487cfa"/>
    <path id="Path_7528" data-name="Path 7528" d="M1079.208,528.847s-1.115-5.418-5.969-3.851c0,0,1.9,5.121,5.624,4.592Z" transform="translate(-869.858 -432.828)" fill="#487cfa"/>
    <path id="Path_7529" data-name="Path 7529" d="M1085.842,499.8s-1.769-5.42-5.522-5.274c0,0,1.808,5.724,5.208,6.354Z" transform="translate(-875.575 -408.453)" fill="#487cfa"/>
    <path id="Path_7530" data-name="Path 7530" d="M1091.2,472.885s-1.925-6.523-4.979-6.021c0,0,1.332,4.987,4.871,7.037Z" transform="translate(-880.339 -386.096)" fill="#487cfa"/>
    <path id="Path_7531" data-name="Path 7531" d="M1093.633,446.293s-1.806-5.435-4.813-5.653c0,0,1.228,5.349,4.754,7.066Z" transform="translate(-882.438 -364.943)" fill="#487cfa"/>
    <path id="Path_7532" data-name="Path 7532" d="M1097.946,420.3s-2.251-5.441-4.236-5.564c0,0,.978,5.358,4.043,6.458Z" transform="translate(-886.387 -344.03)" fill="#487cfa"/>
    <path id="Path_7533" data-name="Path 7533" d="M1102.853,392.28s-1.384-5.909-3.373-6.4c0,0,.271,4.835,3.173,6.843Z" transform="translate(-891.046 -320.727)" fill="#487cfa"/>
    <path id="Path_7534" data-name="Path 7534" d="M1108.037,364.229s-1.456-4.711-3.067-5.43c0,0,.318,5.555,2.7,6.581Z" transform="translate(-895.479 -298.86)" fill="#487cfa"/>
    <path id="Path_7535" data-name="Path 7535" d="M1119.049,331.166l.293-8.306s-3.013,6.261-.51,9.764Z" transform="translate(-905.868 -269.84)" fill="#487cfa"/>
    <path id="Path_7536" data-name="Path 7536" d="M1131.294,296.234s2.17-6.065,2.7-6.4c0,0-4.255,3.935-3.839,9Z" transform="translate(-915.788 -243.17)" fill="#487cfa"/>
    <path id="Path_7537" data-name="Path 7537" d="M1040.542,662.119s3.816-.5,3.7,4.894c0,0-3.448.562-4.575-3.9Z" transform="translate(-842.751 -543.77)" fill="#487cfa"/>
    <path id="Path_7538" data-name="Path 7538" d="M1059.16,639.06s4.409-.013,4.043,5.507c0,0-3.7.662-4.923-4.463Z" transform="translate(-857.778 -525.16)" fill="#487cfa"/>
    <path id="Path_7539" data-name="Path 7539" d="M1074.144,616.91s4-1.877,6.563,2.969c0,0-3.7,1.563-6.918-2.185Z" transform="translate(-870.302 -506.986)" fill="#487cfa"/>
    <path id="Path_7540" data-name="Path 7540" d="M1087.269,592.3s4.1-2,6.506,2.736c0,0-4.27,1.471-6.845-1.987Z" transform="translate(-880.912 -487.063)" fill="#487cfa"/>
    <path id="Path_7541" data-name="Path 7541" d="M1095.461,565.9s3.945-3.768,7.093.042c0,0-4.03,3.1-7.274.8Z" transform="translate(-887.654 -464.743)" fill="#487cfa"/>
    <path id="Path_7542" data-name="Path 7542" d="M1102.482,538.558s3.968-3.851,7.091.177c0,0-4.453,3.163-7.234.632Z" transform="translate(-893.355 -442.668)" fill="#487cfa"/>
    <path id="Path_7543" data-name="Path 7543" d="M1106.93,504.793s3.058-4.813,6.658-3.739c0,0-3.173,5.1-6.623,4.869Z" transform="translate(-897.061 -413.599)" fill="#487cfa"/>
    <path id="Path_7544" data-name="Path 7544" d="M1111.279,476.579s3.081-6.061,6-5.006c0,0-2.222,4.659-6.074,6.028Z" transform="translate(-900.509 -389.821)" fill="#487cfa"/>
    <path id="Path_7545" data-name="Path 7545" d="M1111.428,450.59s3.167-4.771,6.134-4.188c0,0-2.59,4.838-6.442,5.568Z" transform="translate(-900.445 -369.556)" fill="#487cfa"/>
    <path id="Path_7546" data-name="Path 7546" d="M1114,420.481s2.455-5.354,4.449-5.391c0,0-1.178,5.316-4.284,6.3Z" transform="translate(-902.77 -344.313)" fill="#487cfa"/>
    <path id="Path_7547" data-name="Path 7547" d="M1116.5,395.733s2.728-5.422,4.779-5.433c0,0-1.4,4.636-4.688,5.909Z" transform="translate(-904.789 -324.296)" fill="#487cfa"/>
    <path id="Path_7548" data-name="Path 7548" d="M1118.63,367.814s2.041-4.486,3.731-4.994c0,0-1.02,5.468-3.506,6.184Z" transform="translate(-906.509 -302.106)" fill="#487cfa"/>
    <path id="Path_7549" data-name="Path 7549" d="M1122.6,336.009l4.561-6.949s-1.169,6.854-5.227,8.279Z" transform="translate(-909.173 -274.846)" fill="#487cfa"/>
    <path id="Path_7550" data-name="Path 7550" d="M1132.388,308.179s5.3-3.658,5.493-4.249c0,0-2.7,5.123-7.7,6.028Z" transform="translate(-915.835 -254.555)" fill="#487cfa"/>
    <path id="Path_7551" data-name="Path 7551" d="M1142.687,292.935s6.086-5.851,7.64-5.845a9.935,9.935,0,0,0-7.786,5.534Z" transform="translate(-925.815 -240.957)" fill="#487cfa"/>
    <path id="Path_7552" data-name="Path 7552" d="M1118.94,330.029l.221.029c1.144-8.951,2.811-14.248,4.694-14.9l-.073-.212C1121.786,315.643,1120.107,320.859,1118.94,330.029Z" transform="translate(-906.759 -263.453)" fill="#444053"/>
    <path id="Path_7553" data-name="Path 7553" d="M1110.2,411.89l.335.027c.071-.836.125-1.69.162-2.543.32-7.409.815-14.213,1.465-19.313l-.193-.241c-.653,5.112-1.288,12.12-1.608,19.541C1110.325,410.208,1110.271,411.059,1110.2,411.89Z" transform="translate(-899.702 -323.908)" fill="#444053"/>
    <path id="Path_7554" data-name="Path 7554" d="M976.241,542.308a43.61,43.61,0,0,0,12.076-8.94,48.56,48.56,0,0,0,8.828-12.515,56.7,56.7,0,0,0,5.133-19.723l-.349.164a51.5,51.5,0,0,1-13.918,31.74,43.157,43.157,0,0,1-11.951,8.857Z" transform="translate(-791.388 -413.787)" fill="#444053"/>
    <path id="Path_7555" data-name="Path 7555" d="M273.523,132.69h-185a1.648,1.648,0,0,0-1.648,1.648v4.8h188.3v-4.8A1.648,1.648,0,0,0,273.523,132.69Z" transform="translate(-73.4 -116.285)" fill="#15135b"/>
    <path id="Path_7556" data-name="Path 7556" d="M86.87,166.19V274.249a3.323,3.323,0,0,0,3.323,3.323H271.848a3.323,3.323,0,0,0,3.323-3.323V166.19Z" transform="translate(-73.4 -143.335)" fill="#fff"/>
    <rect id="Rectangle_27" data-name="Rectangle 27" width="151.334" height="66.544" transform="translate(30.973 40.873)" opacity="0.05"/>
    <rect id="Rectangle_28" data-name="Rectangle 28" width="149.023" height="65.077" transform="translate(32.129 41.377)" fill="#15135b"/>
    <path id="Path_7557" data-name="Path 7557" d="M332.605,349.38a14.825,14.825,0,1,0,14.825,14.825A14.825,14.825,0,0,0,332.605,349.38Zm2.659,15.182v7.02h-5.241v-7.02a4.342,4.342,0,1,1,5.241,0Z" transform="translate(-259.851 -291.254)" fill="#487cfa"/>
    <path id="Path_7558" data-name="Path 7558" d="M332.605,349.38a14.825,14.825,0,1,0,14.825,14.825A14.825,14.825,0,0,0,332.605,349.38Zm2.659,15.182v7.02h-5.241v-7.02a4.342,4.342,0,1,1,5.241,0Z" transform="translate(-259.851 -291.254)" opacity="0.05"/>
    <path id="Path_7559" data-name="Path 7559" d="M314.841,327.38A19.061,19.061,0,1,0,333.9,346.441,19.061,19.061,0,0,0,314.841,327.38Zm3.418,19.519v9.024H311.52V346.9a5.584,5.584,0,1,1,6.739,0Z" transform="translate(-242.087 -273.49)" fill="#487cfa"/>
    <rect id="Rectangle_29" data-name="Rectangle 29" width="61.612" height="6.546" transform="translate(99.709 70.45)" fill="#fff"/>
    <rect id="Rectangle_30" data-name="Rectangle 30" width="13.285" height="6.546" transform="translate(148.036 82.387)" fill="#487cfa"/>
    <path id="Path_7560" data-name="Path 7560" d="M554.572,424.228h-1.115l.992-.99a.1.1,0,0,0,0-.137.1.1,0,0,0-.137,0l-.992.992v-1.117a.1.1,0,0,0-.1-.1.1.1,0,0,0-.1.1v1.117l-.99-1a.1.1,0,0,0-.137,0,.1.1,0,0,0,0,.137l.992.99h-1.117a.1.1,0,0,0-.1.1.1.1,0,0,0,.1.1h1.117l-.992.992a.1.1,0,0,0,0,.137.1.1,0,0,0,.137,0l.99-.992v1.115a.1.1,0,0,0,.193,0v-1.115l.992.992a.1.1,0,0,0,.137,0,.1.1,0,0,0,0-.137l-.992-.992h1.115a.093.093,0,1,0,0-.187Z" transform="translate(-448.798 -350.603)" fill="#487cfa"/>
    <path id="Path_7561" data-name="Path 7561" d="M575.572,424.228h-1.115l.992-.99a.1.1,0,0,0,0-.137.1.1,0,0,0-.137,0l-.992.992v-1.117a.1.1,0,0,0-.1-.1.1.1,0,0,0-.1.1v1.117l-.99-1a.1.1,0,0,0-.137,0,.1.1,0,0,0,0,.137l.992.99h-1.117a.1.1,0,0,0-.1.1.1.1,0,0,0,.1.1h1.117l-.992.992a.1.1,0,0,0,0,.137.1.1,0,0,0,.137,0l.99-.992v1.115a.1.1,0,0,0,.193,0v-1.115l.992.992a.1.1,0,0,0,.137,0,.1.1,0,0,0,0-.137l-.992-.992h1.115a.093.093,0,1,0,0-.187Z" transform="translate(-465.755 -350.603)" fill="#487cfa"/>
    <path id="Path_7562" data-name="Path 7562" d="M596.572,424.228h-1.115l.992-.99a.1.1,0,0,0,0-.137.1.1,0,0,0-.137,0l-.992.992v-1.117a.1.1,0,0,0-.1-.1.1.1,0,0,0-.1.1v1.117l-.99-1a.1.1,0,0,0-.137,0,.1.1,0,0,0,0,.137l.992.99h-1.117a.1.1,0,0,0-.1.1.1.1,0,0,0,.1.1h1.117l-.992.992a.1.1,0,0,0,0,.137.1.1,0,0,0,.137,0l.99-.992v1.115a.1.1,0,0,0,.193,0v-1.115l.992.992a.1.1,0,0,0,.137,0,.1.1,0,0,0,0-.137l-.992-.992h1.115a.093.093,0,1,0,0-.187Z" transform="translate(-482.711 -350.603)" fill="#487cfa"/>
    <path id="Path_7563" data-name="Path 7563" d="M617.572,424.228h-1.115l.992-.99a.1.1,0,0,0,0-.137.1.1,0,0,0-.137,0l-.992.992v-1.117a.1.1,0,0,0-.1-.1.1.1,0,0,0-.1.1v1.117l-.99-1a.1.1,0,0,0-.137,0,.1.1,0,0,0,0,.137l.992.99h-1.117a.1.1,0,0,0-.1.1.1.1,0,0,0,.1.1h1.117l-.992.992a.1.1,0,0,0,0,.137.1.1,0,0,0,.137,0l.99-.992v1.115a.1.1,0,0,0,.193,0v-1.115l.992.992a.1.1,0,0,0,.137,0,.1.1,0,0,0,0-.137l-.992-.992h1.115a.093.093,0,1,0,0-.187Z" transform="translate(-499.668 -350.603)" fill="#487cfa"/>
    <path id="Path_7564" data-name="Path 7564" d="M638.572,424.228h-1.115l.992-.99a.1.1,0,0,0,0-.137.1.1,0,0,0-.137,0l-.992.992v-1.117a.1.1,0,0,0-.1-.1.1.1,0,0,0-.1.1v1.117l-.99-1a.1.1,0,0,0-.137,0,.1.1,0,0,0,0,.137l.992.99h-1.117a.1.1,0,0,0-.1.1.1.1,0,0,0,.1.1h1.117l-.992.992a.1.1,0,0,0,0,.137.1.1,0,0,0,.137,0l.99-.992v1.115a.1.1,0,0,0,.193,0v-1.115l.992.992a.1.1,0,0,0,.137,0,.1.1,0,0,0,0-.137l-.992-.992h1.115a.093.093,0,1,0,0-.187Z" transform="translate(-516.625 -350.603)" fill="#487cfa"/>
    <path id="Path_7565" data-name="Path 7565" d="M659.572,424.228h-1.115l.992-.99a.1.1,0,0,0,0-.137.1.1,0,0,0-.137,0l-.992.992v-1.117a.1.1,0,0,0-.1-.1.1.1,0,0,0-.1.1v1.117l-.99-1a.1.1,0,0,0-.137,0,.1.1,0,0,0,0,.137l.992.99h-1.117a.1.1,0,0,0-.1.1.1.1,0,0,0,.1.1h1.117l-.992.992a.1.1,0,0,0,0,.137.1.1,0,0,0,.137,0l.99-.992v1.115a.1.1,0,1,0,.193,0v-1.115l.992.992a.1.1,0,0,0,.137,0,.1.1,0,0,0,0-.137l-.992-.992h1.115a.093.093,0,1,0,0-.187Z" transform="translate(-533.581 -350.603)" fill="#487cfa"/>
    <path id="Path_7566" data-name="Path 7566" d="M680.572,424.228h-1.115l.992-.99a.1.1,0,0,0,0-.137.1.1,0,0,0-.137,0l-.992.992v-1.117a.1.1,0,0,0-.1-.1.1.1,0,0,0-.1.1v1.117l-.99-1a.1.1,0,0,0-.137,0,.1.1,0,0,0,0,.137l.992.99h-1.117a.1.1,0,0,0-.1.1.1.1,0,0,0,.1.1h1.117l-.992.992a.1.1,0,0,0,0,.137.1.1,0,0,0,.137,0l.99-.992v1.115a.1.1,0,0,0,.193,0v-1.115l.992.992a.1.1,0,0,0,.137,0,.1.1,0,0,0,0-.137l-.992-.992h1.115a.093.093,0,1,0,0-.187Z" transform="translate(-550.538 -350.603)" fill="#487cfa"/>
    <path id="Path_7567" data-name="Path 7567" d="M701.572,424.228h-1.115l.992-.99a.1.1,0,0,0,0-.137.1.1,0,0,0-.137,0l-.992.992v-1.117a.1.1,0,0,0-.1-.1.1.1,0,0,0-.1.1v1.117l-.99-1a.1.1,0,0,0-.137,0,.1.1,0,0,0,0,.137l.992.99h-1.117a.1.1,0,0,0-.1.1.1.1,0,0,0,.1.1h1.117l-.992.992a.1.1,0,0,0,0,.137.1.1,0,0,0,.137,0l.99-.992v1.115a.1.1,0,0,0,.193,0v-1.115l.992.992a.1.1,0,0,0,.137,0,.1.1,0,0,0,0-.137l-.992-.992h1.115a.093.093,0,1,0,0-.187Z" transform="translate(-567.495 -350.603)" fill="#487cfa"/>
    <path id="Path_7568" data-name="Path 7568" d="M722.572,424.228h-1.115l.992-.99a.1.1,0,0,0,0-.137.1.1,0,0,0-.137,0l-.992.992v-1.117a.1.1,0,0,0-.1-.1.1.1,0,0,0-.1.1v1.117l-.99-1a.1.1,0,0,0-.137,0,.1.1,0,0,0,0,.137l.992.99h-1.117a.1.1,0,0,0-.1.1.1.1,0,0,0,.1.1h1.117l-.992.992a.1.1,0,0,0,0,.137.1.1,0,0,0,.137,0l.99-.992v1.115a.1.1,0,0,0,.193,0v-1.115l.992.992a.1.1,0,0,0,.137,0,.1.1,0,0,0,0-.137l-.992-.992h1.115a.093.093,0,1,0,0-.187Z" transform="translate(-584.452 -350.603)" fill="#487cfa"/>
    <path id="Path_7569" data-name="Path 7569" d="M743.572,424.228h-1.115l.992-.99a.1.1,0,0,0,0-.137.1.1,0,0,0-.137,0l-.992.992v-1.117a.1.1,0,0,0-.1-.1.1.1,0,0,0-.1.1v1.117l-.99-1a.1.1,0,0,0-.137,0,.1.1,0,0,0,0,.137l.992.99h-1.117a.1.1,0,0,0-.1.1.1.1,0,0,0,.1.1h1.117l-.992.992a.1.1,0,0,0,0,.137.1.1,0,0,0,.137,0l.99-.992v1.115a.1.1,0,1,0,.193,0v-1.115l.992.992a.1.1,0,0,0,.137,0,.1.1,0,0,0,0-.137l-.992-.992h1.115a.093.093,0,1,0,0-.187Z" transform="translate(-601.409 -350.603)" fill="#487cfa"/>
    <path id="Path_7570" data-name="Path 7570" d="M764.572,424.228h-1.115l.992-.99a.1.1,0,0,0,0-.137.1.1,0,0,0-.137,0l-.992.992v-1.117a.1.1,0,0,0-.1-.1.1.1,0,0,0-.1.1v1.117l-.99-1a.1.1,0,0,0-.137,0,.1.1,0,0,0,0,.137l.992.99h-1.117a.1.1,0,0,0-.1.1.1.1,0,0,0,.1.1h1.117l-.992.992a.1.1,0,0,0,0,.137.1.1,0,0,0,.137,0l.99-.992v1.115a.1.1,0,1,0,.193,0v-1.115l.992.992a.1.1,0,0,0,.137,0,.1.1,0,0,0,0-.137l-.992-.992h1.115a.093.093,0,1,0,0-.187Z" transform="translate(-618.365 -350.603)" fill="#487cfa"/>
  </g>
</svg>
