<svg xmlns="http://www.w3.org/2000/svg" width="28.674" height="26.381" viewBox="0 0 28.674 26.381">
  <g id="Kirim_Pesan" data-name="Kirim Pesan" transform="translate(-0.001 1.332)">
    <path id="Path_7868" data-name="Path 7868" d="M24.733-1.332H3.943A3.946,3.946,0,0,0,0,2.61V15.333a3.947,3.947,0,0,0,3.928,3.942v5.774l8.3-5.774H24.733a3.947,3.947,0,0,0,3.942-3.942V2.61a3.946,3.946,0,0,0-3.942-3.942Zm2.262,16.665A2.265,2.265,0,0,1,24.733,17.6H11.7l-6.09,4.238V17.6H3.943a2.265,2.265,0,0,1-2.262-2.262V2.61A2.264,2.264,0,0,1,3.943.348h20.79A2.264,2.264,0,0,1,26.995,2.61Zm0,0" transform="translate(0)" fill="#487cfa"/>
  </g>
</svg>
