<svg xmlns="http://www.w3.org/2000/svg" width="129" height="129.001" viewBox="0 0 129 129.001">
  <g id="Pie" transform="translate(2225.644 -914.253) rotate(90)">
    <path id="Path_7500" data-name="Path 7500" d="M995.033,2206.664a48.274,48.274,0,0,1-60.608-26.228c-.425-.984-.826-1.986-1.19-3.013a48.343,48.343,0,1,1,61.8,29.241Zm44.439-67.235a64.484,64.484,0,1,0-121.435,43.43q.738,2.05,1.591,4.021a64.484,64.484,0,0,0,119.844-47.451Z" fill="#487cfa"/>
    <path id="Path_7501" data-name="Path 7501" d="M934.506,2146.754l-15.4-4.811a64.569,64.569,0,0,1,59.63-45.253l.48,16.133a48.436,48.436,0,0,0-44.706,33.93Z" transform="translate(-1.904 -0.018)" fill="#15135b"/>
    <path id="Path_7502" data-name="Path 7502" d="M934.425,2209.7l-14.8,6.445q-.856-1.968-1.591-4.021a64.194,64.194,0,0,1-.838-40.934L932.6,2176a48.124,48.124,0,0,0,.632,30.687c.364,1.027.765,2.029,1.19,3.013Z" transform="translate(0 -29.266)" fill="#ed716b"/>
    <path id="Path_7503" data-name="Path 7503" d="M933.094,2257.084a64.136,64.136,0,0,1-9.992-16.048l14.8-6.445a48.145,48.145,0,0,0,7.489,12.039l-12.294,10.454Z" transform="translate(-3.474 -54.156)" fill="#ffb167"/>
  </g>
</svg>
