<svg xmlns="http://www.w3.org/2000/svg" width="213.851" height="145.932" viewBox="0 0 213.851 145.932">
  <g id="Regis_selesai" data-name="Regis selesai" transform="translate(0 -0.001)">
    <path id="Path_7571" data-name="Path 7571" d="M112.159,774.926c0,3.8-17.832,6.886-39.83,6.886s-39.83-3.084-39.83-6.886c0-.951,1.113-1.856,3.127-2.678,5.863-2.4,19.362-4.1,35.229-4.2q.734-.006,1.474-.006C94.327,768.04,112.159,771.124,112.159,774.926Z" transform="translate(-31.197 -635.88)" fill="#487cfa"/>
    <path id="Path_7572" data-name="Path 7572" d="M84.529,768.07a22.613,22.613,0,0,1-35.229,4.2C55.163,769.873,68.662,768.169,84.529,768.07Z" transform="translate(-44.87 -635.904)" opacity="0.1"/>
    <ellipse id="Ellipse_149" data-name="Ellipse 149" cx="20.845" cy="22.334" rx="20.845" ry="22.334" transform="translate(0 94.564)" fill="#666594"/>
    <path id="Path_7573" data-name="Path 7573" d="M274.927,141.3c2.956,11.386,12.49,18.746,21.318,16.454" transform="translate(-228.504 -125.786)" fill="#15135b"/>
    <path id="Path_7574" data-name="Path 7574" d="M385.929,118.381c-2.989-11.514,2.564-22.9,12.415-25.457" transform="translate(-318.188 -86.416)" fill="#487cfa"/>
    <path id="Path_7575" data-name="Path 7575" d="M307.456,138.773c2.807,10.816,9.634,18.385,15.263,16.924" transform="translate(-254.979 -123.732)" fill="#487cfa"/>
    <path id="Path_7576" data-name="Path 7576" d="M384.5,89.926c-3.819-14.712,2.3-29.009,13.69-31.965" transform="translate(-316.757 -57.96)" fill="#15135b"/>
    <path id="Path_7577" data-name="Path 7577" d="M371.616,223.039a8.577,8.577,0,0,0,2.8-1.321c.556-.663,3.207-1.971,3.579-1.235s4.41,2.993,1.858,3.678-6.045,1.144-6.834.906S371.616,223.039,371.616,223.039Z" transform="translate(-307.197 -190.056)" fill="#a8a8a8"/>
    <path id="Path_7578" data-name="Path 7578" d="M379.831,235.909c-2.552.684-6.045,1.144-6.834.906-.6-.181-1.1-1.262-1.307-1.767l-.075.023s.618,1.789,1.407,2.028,4.282-.221,6.834-.906c.737-.2.923-.526.808-.912C380.623,235.542,380.379,235.762,379.831,235.909Z" transform="translate(-307.197 -202.088)" opacity="0.2"/>
    <rect id="Rectangle_33" data-name="Rectangle 33" width="150.012" height="86.918" transform="translate(63.839 23.466)" fill="#fff"/>
    <rect id="Rectangle_34" data-name="Rectangle 34" width="82.265" height="43.087" transform="translate(67.375 49.849)" fill="#487cfa" opacity="0.3"/>
    <rect id="Rectangle_35" data-name="Rectangle 35" width="32.995" height="1.825" transform="translate(155.968 47.97)" fill="#15135b"/>
    <rect id="Rectangle_36" data-name="Rectangle 36" width="48.019" height="1.825" transform="translate(155.968 51.34)" fill="#15135b"/>
    <rect id="Rectangle_37" data-name="Rectangle 37" width="32.995" height="1.825" transform="translate(155.968 59.484)" fill="#15135b"/>
    <rect id="Rectangle_38" data-name="Rectangle 38" width="32.995" height="1.825" transform="translate(155.968 72.963)" fill="#15135b"/>
    <rect id="Rectangle_39" data-name="Rectangle 39" width="48.019" height="1.825" transform="translate(155.968 62.853)" fill="#15135b"/>
    <rect id="Rectangle_40" data-name="Rectangle 40" width="48.019" height="1.825" transform="translate(155.968 66.223)" fill="#15135b"/>
    <rect id="Rectangle_41" data-name="Rectangle 41" width="48.019" height="1.825" transform="translate(155.968 69.593)" fill="#15135b"/>
    <rect id="Rectangle_42" data-name="Rectangle 42" width="17.27" height="4.774" transform="translate(155.968 81.106)" fill="#487cfa"/>
    <path id="Path_7579" data-name="Path 7579" d="M339.988,437.174s3.1-8.784,5.339-6.028-3.445,7.406-3.445,7.406Z" transform="translate(-281.456 -361.252)" fill="#a0616a"/>
    <path id="Path_7580" data-name="Path 7580" d="M234.217,419.605l1.865.691s.891,3.959.546,4.648-.517.172,0,1.55,2.067,4.995,2.239,5.511,9.989-3.272,9.989-5.167a17.534,17.534,0,0,0,3.1,2.928s-11.367,8.267-12.917,9.3-2.411.517-3.789-.689-7.234-11.2-7.234-11.2Z" transform="translate(-190.324 -352.295)" fill="#666594"/>
    <path id="Path_7581" data-name="Path 7581" d="M279.866,743.281s-.172,1.895-.517,2.067-2.928,4.478,0,5.339,4.65.517,5.339.861,12.745,1.033,12.917-.861-5.856-2.239-5.856-2.239-5.511-3.617-6.373-5.511S279.866,743.281,279.866,743.281Z" transform="translate(-230.979 -614.83)" fill="#2f2e41"/>
    <path id="Path_7582" data-name="Path 7582" d="M86.031,766.623s-4.133,7.062-3.1,7.923,11.1,4,12.573,4.134c1.895.172,3.272-1.378,1.722-2.239s-4.822-4.478-4.822-5.684v-3.1Z" transform="translate(-72.107 -634.727)" fill="#2f2e41"/>
    <path id="Path_7583" data-name="Path 7583" d="M74.07,518.621s-3.617,4.478,2.067,11.712l9.473,12.056s-5.856,9.3-6.028,14.123-1.378,3.789-1.722,5.856-1.895,1.033-.689,2.583,5.684,2.928,7.062,1.722a4.27,4.27,0,0,0,1.378-3.445c0-.689,2.411-4.65,2.583-5.856s6.545-11.023,6.545-11.023,2.067-5.856-.344-9.128a34.6,34.6,0,0,1-4-7.914s7.1,8.6,12.1,10.669c0,0,1.895.344,1.55,1.206s0,1.378.517,2.239,4.134,10.851,5.339,13.434.689,4.134,2.067,4.995,7.578.172,7.578-.689a17.557,17.557,0,0,0-1.378-4.306c-.517-1.206-4.65-15.156-4.306-17.568s-.172-5.684-2.756-7.061-15.673-12.573-16.362-12.573S74.07,518.621,74.07,518.621Z" transform="translate(-64.107 -432.883)" fill="#2f2e41"/>
    <circle id="Ellipse_150" data-name="Ellipse 150" cx="7.234" cy="7.234" r="7.234" transform="translate(37.348 44.23)" fill="#a0616a"/>
    <path id="Path_7584" data-name="Path 7584" d="M209.625,338.171s-2.239,3.961-4.995,4.478,7.234,8.439,7.234,8.439,2.411-7.578,4.478-7.923S209.625,338.171,209.625,338.171Z" transform="translate(-170.899 -286.018)" fill="#a0616a"/>
    <path id="Path_7585" data-name="Path 7585" d="M112.439,369.83c0,2.239-6.717,8.612-6.717,8.612l-6.373,5.339s-.172,1.895-.861,2.067-1.55.172-.861,1.206,2.411,3.272.861,3.617a12.665,12.665,0,0,1-1.411.134c-.413.024-.9.046-1.445.067-1.275.045-2.869.074-4.6.062q-.736,0-1.5-.017c-6.512-.129-14.056-.878-13.439-3.346,1.033-4.134.344-5.511,2.583-7.75s5.856-9.989,5.856-9.989S91.771,357.6,97.8,357.6l1.252-.329a2.867,2.867,0,0,1,3.129,1.2,31.719,31.719,0,0,0,4.23,5.5c1.722,1.378,1.991.389,1.991.389S112.439,367.591,112.439,369.83Z" transform="translate(-66.652 -301.487)" fill="#666594"/>
    <path id="Path_7586" data-name="Path 7586" d="M176.346,565.815s4.995,7.75,1.895,9.128-4.822-8.095-4.822-8.095Z" transform="translate(-145.888 -471.293)" fill="#a0616a"/>
    <path id="Path_7587" data-name="Path 7587" d="M220.247,291.107c.278-.035.365-.385.412-.661a3.717,3.717,0,0,1,2.831-3.117,4.008,4.008,0,0,1,1.687.136,6.4,6.4,0,0,1,2.164,1.065,3.569,3.569,0,0,0,1.081.679c.271.08,1.424.592,1.693.679.592.191,1.082.81,1.692.688.583-.117.8-.822.9-1.409a7.406,7.406,0,0,0-1.314-4.458,4.728,4.728,0,0,0-2.535-1.659,18.211,18.211,0,0,0-3.515-.7,11.367,11.367,0,0,0-4.817.207,4.6,4.6,0,0,0-3.234,3.308c-.06.332-.071.672-.145,1a14.89,14.89,0,0,1-1.021,2.242,4.317,4.317,0,0,0,.132,3.5c.429.864,1.176,1.694,1.015,2.645L218.6,294.2a.965.965,0,0,0,.444-1.13l-.193-1.664a1.464,1.464,0,0,1,.086-.9C219.527,289.479,219.784,291.165,220.247,291.107Z" transform="translate(-180.394 -240.459)" fill="#15135b"/>
    <path id="Path_7588" data-name="Path 7588" d="M144.035,395.77l1.622,6.746c-1.636.059-3.8.09-6.1.045-.579-1.736-1.132-3.546-1.555-5.241-1.55-6.2,1.033-15.673,2.411-20.151a8.645,8.645,0,0,1,4.823-5.684,15.708,15.708,0,0,1,3.961,2.067C151.441,375.1,144.035,395.77,144.035,395.77Z" transform="translate(-116.677 -313.132)" opacity="0.1"/>
    <path id="Path_7589" data-name="Path 7589" d="M151.438,410.532l1.69,7.024c-.413.024-.9.047-1.445.067-1.274.045-2.869.074-4.6.062-.622-1.845-1.223-3.791-1.676-5.6-1.55-6.2,1.033-15.673,2.411-20.151s4.392.431,4.392.431-1.206-2.928,1.033-1.378S151.438,410.532,151.438,410.532Z" transform="translate(-122.702 -328.238)" opacity="0.1"/>
    <path id="Path_7590" data-name="Path 7590" d="M148.942,369.634a8.645,8.645,0,0,0-4.822,5.684c-1.378,4.478-3.961,13.951-2.411,20.151a116.1,116.1,0,0,0,4.822,13.951s3.272-2.411,4.478-1.895l-3.272-13.606s7.406-20.668,5.167-22.218A15.713,15.713,0,0,0,148.942,369.634Z" transform="translate(-119.689 -311.625)" fill="#666594"/>
    <rect id="Rectangle_43" data-name="Rectangle 43" width="82.265" height="43.087" transform="translate(63.839 45.382)" fill="#15135b"/>
    <ellipse id="Ellipse_151" data-name="Ellipse 151" cx="9.309" cy="9.326" rx="9.309" ry="9.326" transform="translate(97.193 58.442)" fill="#fff"/>
    <path id="Path_7591" data-name="Path 7591" d="M549.072,363.423A11.126,11.126,0,1,0,560.2,374.549,11.126,11.126,0,0,0,549.072,363.423Zm-2.284,17.058-5.7-5.7,1.6-1.6,4.108,4.108,8.671-8.671,1.6,1.6-10.275,10.264Z" transform="translate(-442.57 -306.57)" fill="#487cfa"/>
  </g>
</svg>
