<svg xmlns="http://www.w3.org/2000/svg" width="91" height="15.886" viewBox="0 0 91 15.886">
  <g id="Revel_Assistant_di_Pelayan" data-name="Revel Assistant di Pelayan" transform="translate(-233 -282)">
    <text id="Revel_Assistant" data-name="Revel Assistant" transform="translate(251 294)" fill="#666594" font-size="12" font-family="Calibri"><tspan x="0" y="0">Revel Assistant</tspan></text>
    <g id="Group_2848" data-name="Group 2848" transform="translate(233 282)">
      <path id="Path_7498" data-name="Path 7498" d="M358.243,247.049l1.08-1.517a7.443,7.443,0,0,1,2.824,8.157l-1.785-.525a5.581,5.581,0,0,0-2.118-6.115Z" transform="translate(-347.341 -243.543)" fill="#666594"/>
      <path id="Path_7499" data-name="Path 7499" d="M161.787,215.452a.933.933,0,0,0-.793.909l-.053,1.759a.933.933,0,0,0,.736.955l1.808.385c.017.05.037.1.058.148l-1.1,1.457a.933.933,0,0,0,.073,1.193l1.205,1.281a.933.933,0,0,0,1.187.142l1.552-1.007.144.067.274,1.828a.933.933,0,0,0,.909.793l1.759.053a.933.933,0,0,0,.956-.736l.385-1.808.148-.058,1.488,1.1a.933.933,0,0,0,1.194-.073l1.031-.967a.312.312,0,0,0-.415-.467l-1.044.982a.311.311,0,0,1-.4.025l-1.217-.9a5.684,5.684,0,0,0,1.86-1.639.311.311,0,0,0-.505-.364,5.13,5.13,0,1,1-2.667-7.944.311.311,0,0,0,.174-.6,5.855,5.855,0,0,0-2.93-.089l.312-1.48a.311.311,0,0,1,.319-.245l1.032.031a.311.311,0,0,0,.019-.621l-1.035-.031a.933.933,0,0,0-.955.736l-.385,1.808-.148.058-1.472-1.115a.933.933,0,0,0-1.193.073l-1.281,1.205a.933.933,0,0,0-.142,1.187l1.007,1.552c-.023.046-.046.1-.067.144Zm-.224,2.671.053-1.759a.311.311,0,0,1,.264-.3l1.494-.222a5.767,5.767,0,0,0-.088,2.909l-1.477-.312A.311.311,0,0,1,161.562,218.123Zm8.615,4.949-.312,1.477a.311.311,0,0,1-.318.245l-1.756-.053a.311.311,0,0,1-.3-.264l-.222-1.494A5.733,5.733,0,0,0,170.177,223.073Zm-4.332-.732-1.269.823a.311.311,0,0,1-.394-.046l-1.205-1.281a.311.311,0,0,1-.025-.4l.9-1.217a5.761,5.761,0,0,0,1.992,2.116Zm-2.6-9.591,1.281-1.205a.311.311,0,0,1,.4-.025l1.217.9a5.761,5.761,0,0,0-2.126,2l-.823-1.269a.311.311,0,0,1,.056-.4Z" transform="translate(-160.939 -209.529)" fill="#666594"/>
    </g>
  </g>
</svg>
