<svg xmlns="http://www.w3.org/2000/svg" width="15.731" height="26.393" viewBox="0 0 15.731 26.393">
  <g id="Jumlah_Penjualan_naik" data-name="Jumlah Penjualan naik" transform="translate(-39.846 -135.592)">
    <path id="Back" d="M.513,0A.624.624,0,0,1,.841.2Q3.975,3.332,7.108,6.464a.455.455,0,0,1,0,.724Q3.964,10.332.819,13.471a.465.465,0,0,1-.687.056.475.475,0,0,1,.036-.69c.157-.17.325-.329.489-.492Q3.318,9.684,5.983,7.028c.172-.17.156-.249-.005-.409Q3.1,3.759.236.887A.6.6,0,0,1,0,.431.463.463,0,0,1,.513,0Z" transform="translate(40.846 143.939) rotate(-90)" fill="#15135b" stroke="#15135b" stroke-width="2"/>
    <line id="Line_20" data-name="Line 20" y2="13.033" transform="translate(47.48 147.202)" fill="none" stroke="#15135b" stroke-linecap="round" stroke-width="3.5"/>
  </g>
</svg>
