<svg xmlns="http://www.w3.org/2000/svg" width="30.081" height="28.086" viewBox="0 0 30.081 28.086">
  <path id="Telepon" d="M175.53,328.558a15.115,15.115,0,0,1-7.643-1.993,31.768,31.768,0,0,1-11.86-11.285,13.5,13.5,0,0,1-1.8-5.117,7.189,7.189,0,0,1,2.344-6.527c.321-.31.645-.619.982-.912a1.934,1.934,0,0,1,3.115.58c.8,1.674,1.529,3.382,2.258,5.089a1.94,1.94,0,0,1-.284,2.024c-.323.428-.66.845-.978,1.276a1.966,1.966,0,0,0-.043,2.567,27.65,27.65,0,0,0,5.5,5.528,16.619,16.619,0,0,0,3.078,2.034,1.957,1.957,0,0,0,2.452-.369c.374-.358.733-.733,1.093-1.106a2.1,2.1,0,0,1,2.248-.6c1.662.482,3.331.943,4.986,1.446a1.962,1.962,0,0,1,1.085,3.183,15.032,15.032,0,0,1-1.288,1.711A6.407,6.407,0,0,1,175.53,328.558Z" transform="translate(-153.29 -301.322)" fill="none" stroke="#487cfa" stroke-width="1.7"/>
</svg>
